# xmcd CD database file
#
# Track frame offsets:
#	150
#	5970
#	39783
#	66204
#	87313
#	111539
#	141295
#	144341
#	159127
#
# Disc length: 2300 seconds
#
# Revision: 1
# Processed by: cddbd v1.5.2PL0 Copyright (c) Steve Scherf et al.
# Submitted via: CDex 1.70beta2
#
DISCID=7608fa09
DTITLE=Joe Bonamassa Band, Sam Bush Band and Crosby Loggins - Garde Arts Center in New London, New London, Connecticut - 18 nov. 2007 [CD1/4)
DYEAR=2007
DGENRE=Blues
TTITLE0=Crosby Loggins - (Intro)
TTITLE1=Crosby Loggins - Grand Design
TTITLE2=Crosby Loggins - March On America
TTITLE3=Crosby Loggins - The Same Old Song
TTITLE4=Crosby Loggins - I'm Built From Broken Bones
TTITLE5=Crosby Loggins - We All Go Home
TTITLE6=Crosby Loggins - (Crowd)
TTITLE7=Crosby Loggins - World Turning
TTITLE8=Crosby Loggins - Superstition
EXTD=YEAR: 2007
EXTT0=
EXTT1=
EXTT2=
EXTT3=
EXTT4=
EXTT5=
EXTT6=
EXTT7=
EXTT8=
PLAYORDER=
